<svg width="100" height="100" viewBox="0 0 100 100" fill="none" xmlns="http://www.w3.org/2000/svg">
<rect width="100" height="100" fill="white"/>
<path d="M43.4348 59.9224L60.5104 49.9752L43.4348 40.0764V59.9224ZM24.2912 71.753C21.4532 70.9803 19.2406 68.7109 18.4229 65.9101C17.0762 60.7433 17.0762 49.9752 17.0762 49.9752C17.0762 49.9752 17.0762 39.2071 18.4229 34.0887C19.2406 31.2398 21.4532 29.0184 24.2912 28.2458C29.3898 26.8455 49.9764 26.8455 49.9764 26.8455C49.9764 26.8455 70.6112 26.8455 75.71 28.2458C78.5959 29.0184 80.7604 31.2398 81.5301 34.0887C82.9248 39.2071 82.9248 49.9752 82.9248 49.9752C82.9248 49.9752 82.9248 60.7433 81.5301 65.9101C80.7604 68.7109 78.5959 70.9803 75.71 71.753C70.6112 73.1533 49.9764 73.1533 49.9764 73.1533C49.9764 73.1533 29.3898 73.1533 24.2912 71.753Z" fill="#FF0033"/>
</svg>
