<svg width="32" height="32" viewBox="0 0 32 32" fill="none" xmlns="http://www.w3.org/2000/svg"><path d="M30.0876 16.0911C30.0876 23.8249 23.8177 30.0943 16.0833 30.0943C8.34902 30.0943 2.0791 23.8249 2.0791 16.0911C2.0791 8.35735 8.34902 2.08789 16.0833 2.08789C23.8177 2.08789 30.0876 8.35735 30.0876 16.0911Z" fill="white"/><path fill-rule="evenodd" clip-rule="evenodd" d="M8.2255 16.4133C10.2938 16.4134 12.0384 17.7914 12.5954 19.6786C14.483 20.2354 15.8614 21.9805 15.8614 24.0492V29.0403L15.3087 29.0077C14.2358 28.9444 13.1973 28.7505 12.2095 28.4412C10.2589 27.8304 8.50819 26.7702 7.07672 25.3834L7.07401 25.3831L6.96667 25.2767C6.9578 25.268 6.94902 25.2591 6.94018 25.2503L6.8916 25.2027L6.89092 25.2007C5.50978 23.8079 4.44232 22.1021 3.80498 20.1986C3.46169 19.1733 3.24304 18.0909 3.16742 16.97L3.13005 16.4133H8.2255ZM12.7819 20.97C12.7819 21.1101 12.7752 21.2486 12.7629 21.3854C12.7622 21.3927 12.7619 21.4 12.7612 21.4072C12.7554 21.4683 12.7476 21.5289 12.7394 21.5892C12.7374 21.6039 12.7354 21.6185 12.7333 21.6331C12.7251 21.6891 12.716 21.7448 12.7058 21.8002C12.7036 21.812 12.7016 21.8238 12.6993 21.8355C12.6878 21.8956 12.6752 21.9553 12.6613 22.0145C12.6599 22.0203 12.6586 22.0261 12.6572 22.0318C12.5938 22.2976 12.5068 22.5541 12.3991 22.7995C12.3971 22.804 12.3953 22.8086 12.3933 22.8131C12.3402 22.9331 12.282 23.0504 12.219 23.1647C12.2152 23.1716 12.2113 23.1785 12.2075 23.1854C12.0198 23.522 11.7901 23.8317 11.5265 24.109C11.5106 24.1256 11.495 24.1425 11.4789 24.1589C11.4467 24.1917 11.4139 24.2238 11.3807 24.2557C11.3637 24.2721 11.3464 24.2882 11.3291 24.3043C10.6451 24.9413 9.76581 25.3711 8.79004 25.4918C9.89532 26.3501 11.1555 27.0176 12.5214 27.4452C13.2583 27.676 14.0264 27.8369 14.8179 27.9204V24.0492C14.8179 22.6363 13.9833 21.4176 12.7802 20.86C12.7811 20.8966 12.7819 20.9332 12.7819 20.97ZM11.3046 20.5359C9.36444 20.5359 7.79144 22.109 7.7914 24.0492C7.7914 24.1878 7.7999 24.3245 7.81551 24.4588C7.89337 24.4678 7.97211 24.4741 8.05159 24.4782C8.10907 24.481 8.16692 24.4829 8.22516 24.4829C9.01336 24.4829 9.74091 24.2233 10.3271 23.7849C10.3722 23.7512 10.4165 23.7164 10.4599 23.6806C11.2407 23.0362 11.7384 22.0611 11.7384 20.9697C11.7384 20.9168 11.7366 20.8643 11.7343 20.8121C11.7303 20.7271 11.7236 20.6429 11.714 20.5597C11.58 20.5441 11.4433 20.5359 11.3046 20.5359ZM4.25947 17.4568C4.35493 18.2896 4.53625 19.0962 4.79445 19.8674C5.24142 21.2023 5.91899 22.4321 6.77985 23.5094C7.04687 21.2473 8.97078 19.4924 11.3046 19.4924C11.3413 19.4924 11.3779 19.4933 11.4144 19.4941C10.8567 18.2912 9.63822 17.4568 8.2255 17.4568H4.25947Z" fill="url(#paint0_linear_2168_4371)"/><path fill-rule="evenodd" clip-rule="evenodd" d="M28.9979 16.9704C28.9312 17.9587 28.7537 18.9171 28.4772 19.8328C27.881 21.8073 26.8263 23.5824 25.4375 25.0339L25.4341 25.0369L25.431 25.0403L25.1525 25.3216L25.1521 25.3212C25.1483 25.3253 25.1446 25.3295 25.1406 25.3335C23.7253 26.7197 21.9925 27.784 20.0608 28.4072L20.0611 28.4075C19.1098 28.7145 18.1104 28.9138 17.0781 28.9924L16.5166 29.0352V24.0492C16.5166 21.9806 17.8948 20.2355 19.7822 19.6786C20.3393 17.7913 22.0844 16.4133 24.1528 16.4133H29.0356L28.9979 16.9704ZM19.5971 20.86C18.3943 21.4177 17.5601 22.6365 17.5601 24.0492V27.8956C18.311 27.8027 19.0401 27.6403 19.7404 27.4143C21.0827 26.9813 22.3209 26.3157 23.4082 25.4653C21.2458 25.1099 19.5957 23.2327 19.5957 20.9697C19.5957 20.933 19.5962 20.8964 19.5971 20.86ZM21.0733 20.5359C20.9345 20.5359 20.7977 20.5444 20.6633 20.56C20.6477 20.6943 20.6392 20.831 20.6392 20.9697C20.6392 22.9099 22.2123 24.4829 24.1525 24.4829C24.2817 24.4829 24.4092 24.4754 24.5346 24.4619L24.5655 24.431C24.579 24.3057 24.5866 24.1783 24.5866 24.0492C24.5865 22.109 23.0135 20.5359 21.0733 20.5359ZM24.1528 17.4568C22.7401 17.4568 21.5214 18.291 20.9636 19.4938C21.0001 19.4929 21.0367 19.4924 21.0733 19.4924C23.3273 19.4924 25.1985 21.1294 25.5645 23.2791C26.4101 22.1663 27.0646 20.9008 27.4782 19.5312C27.68 18.8629 27.8235 18.1694 27.9052 17.4568H24.1528Z" fill="url(#paint1_linear_2168_4371)"/><path fill-rule="evenodd" clip-rule="evenodd" d="M15.8614 8.12186C15.8614 10.1905 14.483 11.9349 12.5954 12.4918C12.0386 14.3794 10.2939 15.7577 8.2255 15.7577H3.13005L3.16742 15.201C3.24304 14.0801 3.46169 12.9977 3.80498 11.9724C4.44239 10.0687 5.50994 8.36285 6.89126 6.97002L6.89194 6.96833L6.96667 6.89462L7.07367 6.7883L7.07638 6.78762C8.50789 5.40077 10.2589 4.34083 12.2095 3.72987C13.1973 3.42052 14.2358 3.2266 15.3087 3.1633L15.8614 3.13069V8.12186ZM6.77985 8.66126C5.91887 9.73865 5.24145 10.9689 4.79445 12.3039C4.53628 13.0751 4.35493 13.8815 4.25947 14.7142H8.2255C9.63799 14.7142 10.8559 13.8797 11.4137 12.6769C11.3774 12.6777 11.3411 12.6786 11.3046 12.6786C11.2328 12.6786 11.1613 12.6768 11.0903 12.6735C11.0886 12.6734 11.0869 12.6732 11.0852 12.6731C11.0155 12.6698 10.9462 12.6649 10.8773 12.6585C10.8745 12.6583 10.8717 12.6578 10.8688 12.6575C10.8063 12.6516 10.7442 12.6442 10.6824 12.6358C10.6676 12.6338 10.6529 12.6318 10.6382 12.6297C10.5817 12.6214 10.5255 12.6122 10.4697 12.6018C10.4559 12.5993 10.4421 12.5964 10.4283 12.5937C10.3728 12.5829 10.3176 12.5715 10.2629 12.5587C10.2494 12.5555 10.2359 12.5521 10.2224 12.5488C10.1637 12.5345 10.1054 12.5192 10.0475 12.5026C10.0425 12.5012 10.0376 12.4997 10.0326 12.4982C9.97492 12.4815 9.91771 12.4638 9.86103 12.4449C9.84992 12.4412 9.83882 12.4375 9.82774 12.4337C9.77668 12.4162 9.72614 12.3975 9.67591 12.3783C9.66312 12.3734 9.65026 12.3687 9.63753 12.3637C9.58368 12.3425 9.53036 12.3203 9.47754 12.2971C9.46802 12.293 9.45849 12.2888 9.44901 12.2846C9.39346 12.2598 9.33861 12.2337 9.28426 12.2068C9.278 12.2037 9.27183 12.2004 9.26558 12.1973C9.21181 12.1703 9.15847 12.1427 9.10594 12.1137C9.09697 12.1088 9.08803 12.1038 9.0791 12.0988C8.96624 12.0355 8.85628 11.9677 8.74962 11.8953C8.74606 11.8929 8.74264 11.8902 8.73909 11.8878C8.6326 11.8151 8.52939 11.7381 8.42965 11.6568C8.42552 11.6535 8.42119 11.6504 8.41708 11.647C8.36838 11.6071 8.32072 11.5659 8.27373 11.524C8.2699 11.5206 8.26601 11.5173 8.26219 11.5138C8.22879 11.4839 8.19651 11.4527 8.16402 11.4218C8.14407 11.4028 8.12385 11.3841 8.10424 11.3647C8.0762 11.337 8.04902 11.3085 8.0217 11.2801C8.00115 11.2588 7.98034 11.2377 7.96022 11.2159C7.64582 10.8763 7.38236 10.4889 7.18236 10.0655C7.18011 10.0607 7.1778 10.056 7.17557 10.0512C6.9739 9.62036 6.83783 9.1528 6.77985 8.66126ZM8.22516 7.68809C8.10263 7.6881 7.98134 7.69396 7.86171 7.7061L7.86205 7.70644C7.84629 7.70805 7.83054 7.7097 7.81484 7.71153C7.81057 7.74827 7.8071 7.7852 7.80397 7.82227C7.79569 7.92056 7.7914 8.02054 7.7914 8.12186C7.7914 10.0621 9.36442 11.6351 11.3046 11.6351C11.4434 11.6351 11.58 11.6262 11.7143 11.6106C11.7298 11.4765 11.7384 11.3399 11.7384 11.2013C11.7384 9.26112 10.1654 7.68809 8.22516 7.68809ZM14.8179 4.25025C14.0264 4.3338 13.2584 4.49497 12.5214 4.7258C11.1556 5.15357 9.8953 5.82073 8.79004 6.67892C11.0401 6.95706 12.7819 8.87603 12.7819 11.2013C12.7819 11.2379 12.781 11.2744 12.7802 11.3107C13.9832 10.753 14.8179 9.53468 14.8179 8.12186V4.25025Z" fill="url(#paint2_linear_2168_4371)"/><path fill-rule="evenodd" clip-rule="evenodd" d="M17.0781 3.1779C18.1104 3.25654 19.1098 3.45615 20.0611 3.76316C21.9928 4.38634 23.7253 5.451 25.1406 6.83721C25.1445 6.84105 25.148 6.84521 25.1518 6.8491L25.1528 6.84842L25.432 7.13239L25.4347 7.13477L25.4375 7.13748C26.8263 8.58897 27.881 10.364 28.4772 12.3386C28.7537 13.2543 28.9312 14.2127 28.9979 15.201L29.0356 15.7577H24.1528C22.0841 15.7577 20.339 14.3795 19.7822 12.4918C17.8948 11.9348 16.5166 10.19 16.5166 8.12152V3.13544L17.0781 3.1779ZM25.5645 8.8919C25.1985 11.0417 23.3274 12.6786 21.0733 12.6786C21.0367 12.6786 21.0001 12.6781 20.9636 12.6772C21.5214 13.8801 22.7401 14.7142 24.1528 14.7142H27.9052C27.8235 14.0017 27.68 13.3084 27.4782 12.6402C27.0646 11.2704 26.4102 10.0047 25.5645 8.8919ZM24.1525 7.68775C22.2123 7.6878 20.6392 9.2608 20.6392 11.201C20.6392 11.3398 20.648 11.4766 20.6637 11.611C20.6846 11.6134 20.7055 11.6161 20.7265 11.6181H20.7272C20.841 11.6293 20.9566 11.6351 21.0733 11.6351C23.0136 11.6351 24.5866 10.0621 24.5866 8.12186C24.5866 7.99241 24.5787 7.86489 24.5652 7.73939L24.5349 7.70847C24.5026 7.70501 24.4701 7.7019 24.4375 7.6993L24.4364 7.69896C24.3434 7.69142 24.2486 7.68775 24.1525 7.68775ZM17.5601 8.12152C17.5601 9.53415 18.3943 10.7526 19.5971 11.3104C19.5962 11.274 19.5957 11.2376 19.5957 11.201C19.5957 8.93796 21.2458 7.06041 23.4082 6.70508C22.321 5.85473 21.0826 5.18936 19.7404 4.75637C19.0401 4.53034 18.311 4.36763 17.5601 4.27471V8.12152Z" fill="url(#paint3_linear_2168_4371)"/><defs><linearGradient id="paint0_linear_2168_4371" x1="16.0828" y1="3.13069" x2="16.0828" y2="29.0403" gradientUnits="userSpaceOnUse"><stop stop-color="#FC61A9"/><stop offset="1" stop-color="#E33483"/></linearGradient><linearGradient id="paint1_linear_2168_4371" x1="16.0828" y1="3.13069" x2="16.0828" y2="29.0403" gradientUnits="userSpaceOnUse"><stop stop-color="#FC61A9"/><stop offset="1" stop-color="#E33483"/></linearGradient><linearGradient id="paint2_linear_2168_4371" x1="16.0828" y1="3.13069" x2="16.0828" y2="29.0403" gradientUnits="userSpaceOnUse"><stop stop-color="#FC61A9"/><stop offset="1" stop-color="#E33483"/></linearGradient><linearGradient id="paint3_linear_2168_4371" x1="16.0828" y1="3.13069" x2="16.0828" y2="29.0403" gradientUnits="userSpaceOnUse"><stop stop-color="#FC61A9"/><stop offset="1" stop-color="#E33483"/></linearGradient></defs></svg>