<svg width="100" height="100" viewBox="0 0 100 100" fill="none" xmlns="http://www.w3.org/2000/svg">
<rect width="100" height="100" fill="white"/>
<path d="M29.6799 57.8884H17.1644C16.2863 57.8884 15.5018 57.3642 15.1657 56.5529C14.8297 55.7417 15.0138 54.8162 15.6347 54.1954L24.3037 45.5264H18.0905C16.3837 45.5264 15 44.1427 15 42.4359H26.542C27.4201 42.4359 28.2046 42.96 28.5406 43.7712C28.8767 44.5825 28.6927 45.5078 28.0719 46.129L19.4028 54.7979H26.5894C28.2962 54.7979 29.6799 56.1816 29.6799 57.8884ZM85 48.2306C85 44.9075 82.2965 42.2041 78.9735 42.2041C77.196 42.2041 75.5963 42.9781 74.4923 44.2062C73.3883 42.9781 71.7885 42.2041 70.011 42.2041C66.688 42.2041 63.9845 44.9075 63.9845 48.2306V57.8884C65.6914 57.8884 67.075 56.5048 67.075 54.7979V48.2306C67.075 46.6117 68.3921 45.2946 70.011 45.2946C71.6299 45.2946 72.947 46.6117 72.947 48.2306V54.7979C72.947 56.5048 74.3307 57.8884 76.0375 57.8884V48.2306C76.0375 46.6117 77.3546 45.2946 78.9735 45.2946C80.5924 45.2946 81.9095 46.6117 81.9095 48.2306V54.7979C81.9095 56.5048 83.2932 57.8884 85 57.8884V48.2306ZM62.4393 50.1622C62.4393 54.5573 58.8764 58.1202 54.4812 58.1202C50.0861 58.1202 46.5232 54.5573 46.5232 50.1622C46.5232 45.767 50.0861 42.2041 54.4812 42.2041C58.8763 42.2041 62.4393 45.767 62.4393 50.1622ZM59.3488 50.1622C59.3488 47.4739 57.1695 45.2946 54.4812 45.2946C51.793 45.2946 49.6137 47.4739 49.6137 50.1622C49.6137 52.8504 51.793 55.0297 54.4812 55.0297C57.1695 55.0297 59.3488 52.8504 59.3488 50.1622ZM45.287 50.1622C45.287 54.5573 41.724 58.1202 37.3289 58.1202C32.9338 58.1202 29.3709 54.5573 29.3709 50.1622C29.3709 45.767 32.9338 42.2041 37.3289 42.2041C41.724 42.2041 45.287 45.767 45.287 50.1622ZM42.1965 50.1622C42.1965 47.4739 40.0172 45.2946 37.3289 45.2946C34.6406 45.2946 32.4614 47.4739 32.4614 50.1622C32.4614 52.8504 34.6406 55.0297 37.3289 55.0297C40.0172 55.0297 42.1965 52.8504 42.1965 50.1622Z" fill="#0B5CFF"/>
</svg>
