<svg width="32" height="32" viewBox="0 0 32 32" fill="none" xmlns="http://www.w3.org/2000/svg"><path fill-rule="evenodd" clip-rule="evenodd" d="M8.22631 16.4135C10.2946 16.4135 12.0392 17.7915 12.5962 19.6788C14.4838 20.2356 15.8622 21.9807 15.8622 24.0493V29.0405L15.3095 29.0079C14.2366 28.9446 13.1981 28.7507 12.2103 28.4413C10.2598 27.8306 8.50899 26.7704 7.07753 25.3836L7.07481 25.3832L6.96748 25.2769C6.95861 25.2681 6.94982 25.2592 6.94098 25.2504L6.89241 25.2029L6.89173 25.2008C5.51059 23.8081 4.44313 22.1023 3.80579 20.1988C3.4625 19.1734 3.24384 18.0911 3.16822 16.9702L3.13086 16.4135H8.22631ZM12.7827 20.9702C12.7827 21.1102 12.776 21.2488 12.7637 21.3856C12.763 21.3929 12.7627 21.4001 12.762 21.4074C12.7562 21.4684 12.7484 21.5291 12.7402 21.5894C12.7382 21.604 12.7362 21.6187 12.7341 21.6332C12.7259 21.6893 12.7168 21.745 12.7066 21.8004C12.7044 21.8121 12.7024 21.8239 12.7002 21.8357C12.6886 21.8958 12.676 21.9555 12.6621 22.0147C12.6608 22.0205 12.6594 22.0262 12.658 22.032C12.5946 22.2978 12.5076 22.5543 12.3999 22.7997C12.3979 22.8042 12.3961 22.8088 12.3941 22.8133C12.341 22.9333 12.2828 23.0505 12.2199 23.1648C12.216 23.1718 12.2122 23.1786 12.2083 23.1855C12.0206 23.5222 11.7909 23.8319 11.5273 24.1091C11.5114 24.1258 11.4958 24.1426 11.4797 24.1591C11.4475 24.1919 11.4147 24.224 11.3815 24.2559C11.3645 24.2722 11.3472 24.2883 11.3299 24.3044C10.6459 24.9415 9.76662 25.3713 8.79085 25.4919C9.89613 26.3502 11.1563 27.0177 12.5222 27.4454C13.2591 27.6762 14.0273 27.8371 14.8187 27.9206V24.0493C14.8187 22.6365 13.9841 21.4178 12.781 20.8601C12.7819 20.8967 12.7827 20.9334 12.7827 20.9702ZM11.3055 20.5361C9.36525 20.5361 7.79225 22.1091 7.7922 24.0493C7.7922 24.188 7.8007 24.3247 7.81632 24.459C7.89418 24.468 7.97292 24.4742 8.05239 24.4783C8.10987 24.4811 8.16772 24.4831 8.22597 24.4831C9.01417 24.4831 9.74171 24.2234 10.3279 23.7851C10.373 23.7513 10.4173 23.7166 10.4607 23.6808C11.2415 23.0364 11.7392 22.0612 11.7392 20.9699C11.7392 20.917 11.7374 20.8645 11.7351 20.8122C11.7312 20.7273 11.7244 20.6431 11.7148 20.5599C11.5808 20.5443 11.4441 20.5361 11.3055 20.5361ZM4.26028 17.4569C4.35574 18.2898 4.53705 19.0964 4.79526 19.8676C5.24222 21.2025 5.9198 22.4323 6.78066 23.5096C7.04768 21.2475 8.97159 19.4926 11.3055 19.4926C11.3421 19.4926 11.3787 19.4934 11.4152 19.4943C10.8575 18.2914 9.63903 17.457 8.22631 17.4569H4.26028Z" fill="white"/><path fill-rule="evenodd" clip-rule="evenodd" d="M28.9987 16.9705C28.932 17.9588 28.7545 18.9172 28.478 19.833C27.8818 21.8075 26.8271 23.5826 25.4383 25.0341L25.4349 25.0371L25.4318 25.0405L25.1533 25.3218L25.1529 25.3214C25.1491 25.3254 25.1454 25.3297 25.1414 25.3336C23.7261 26.7198 21.9933 27.7842 20.0616 28.4074L20.0619 28.4077C19.1106 28.7147 18.1112 28.914 17.0789 28.9926L16.5174 29.0354V24.0493C16.5174 21.9808 17.8956 20.2357 19.783 19.6788C20.3401 17.7914 22.0852 16.4135 24.1536 16.4135H29.0364L28.9987 16.9705ZM19.5979 20.8601C18.3951 21.4179 17.5609 22.6367 17.5609 24.0493V27.8958C18.3118 27.8029 19.0409 27.6405 19.7413 27.4145C21.0835 26.9815 22.3218 26.3158 23.4091 25.4654C21.2466 25.1101 19.5966 23.2329 19.5966 20.9699C19.5966 20.9332 19.597 20.8966 19.5979 20.8601ZM21.0741 20.5361C20.9353 20.5361 20.7985 20.5445 20.6641 20.5602C20.6485 20.6945 20.64 20.8312 20.64 20.9699C20.64 22.9101 22.2131 24.4831 24.1533 24.4831C24.2826 24.4831 24.4101 24.4756 24.5354 24.462L24.5663 24.4311C24.5798 24.3059 24.5874 24.1785 24.5874 24.0493C24.5873 22.1091 23.0143 20.5361 21.0741 20.5361ZM24.1536 17.4569C22.7409 17.4569 21.5222 18.2912 20.9644 19.494C21.0009 19.4931 21.0375 19.4926 21.0741 19.4926C23.3281 19.4926 25.1993 21.1296 25.5653 23.2793C26.4109 22.1665 27.0654 20.901 27.479 19.5313C27.6808 18.8631 27.8243 18.1696 27.906 17.4569H24.1536Z" fill="white"/><path fill-rule="evenodd" clip-rule="evenodd" d="M15.8622 8.12203C15.8622 10.1906 14.4838 11.9351 12.5962 12.4919C12.0394 14.3796 10.2947 15.7578 8.22631 15.7579H3.13086L3.16822 15.2012C3.24384 14.0803 3.4625 12.9979 3.80579 11.9726C4.44319 10.0689 5.51074 8.36302 6.89207 6.97019L6.89275 6.9685L6.96748 6.89479L7.07447 6.78847L7.07719 6.78779C8.5087 5.40094 10.2597 4.341 12.2103 3.73004C13.1981 3.42069 14.2366 3.22677 15.3095 3.16347L15.8622 3.13086V8.12203ZM6.78066 8.66143C5.91968 9.73882 5.24226 10.9691 4.79526 12.3041C4.53709 13.0752 4.35574 13.8816 4.26028 14.7144H8.22631C9.6388 14.7144 10.8567 13.8799 11.4145 12.6771C11.3782 12.6779 11.3419 12.6788 11.3055 12.6788C11.2336 12.6788 11.1622 12.6769 11.0911 12.6737C11.0894 12.6736 11.0877 12.6734 11.086 12.6733C11.0163 12.67 10.947 12.6651 10.8781 12.6587C10.8753 12.6584 10.8725 12.658 10.8697 12.6577C10.8071 12.6518 10.745 12.6444 10.6832 12.636C10.6684 12.6339 10.6537 12.632 10.639 12.6298C10.5825 12.6216 10.5263 12.6123 10.4705 12.602C10.4567 12.5994 10.4429 12.5965 10.4291 12.5938C10.3736 12.583 10.3184 12.5717 10.2637 12.5588C10.2502 12.5557 10.2367 12.5523 10.2233 12.549C10.1645 12.5347 10.1062 12.5194 10.0483 12.5028C10.0433 12.5014 10.0384 12.4998 10.0334 12.4984C9.97573 12.4817 9.91852 12.464 9.86184 12.4451C9.85073 12.4413 9.83962 12.4376 9.82855 12.4338C9.77749 12.4164 9.72694 12.3977 9.67672 12.3785C9.66393 12.3736 9.65107 12.3689 9.63833 12.3639C9.58448 12.3427 9.53117 12.3205 9.47835 12.2973C9.46882 12.2931 9.4593 12.289 9.44981 12.2847C9.39427 12.2599 9.33941 12.2339 9.28507 12.2069C9.27881 12.2038 9.27264 12.2006 9.26639 12.1974C9.21262 12.1705 9.15927 12.1429 9.10674 12.1139C9.09778 12.1089 9.08884 12.1039 9.07991 12.0989C8.96705 12.0356 8.85708 11.9678 8.75042 11.8955C8.74686 11.893 8.74345 11.8904 8.73989 11.888C8.63341 11.8153 8.53019 11.7382 8.43045 11.657C8.42633 11.6537 8.422 11.6505 8.41788 11.6472C8.36919 11.6072 8.32152 11.5661 8.27454 11.5242C8.27071 11.5208 8.26681 11.5174 8.26299 11.514C8.2296 11.484 8.19732 11.4529 8.16483 11.422C8.14487 11.403 8.12465 11.3843 8.10504 11.3649C8.077 11.3372 8.04982 11.3087 8.0225 11.2803C8.00196 11.259 7.98115 11.2379 7.96102 11.2161C7.64662 10.8764 7.38316 10.4891 7.18317 10.0656C7.18092 10.0609 7.17861 10.0561 7.17638 10.0514C6.9747 9.62053 6.83864 9.15297 6.78066 8.66143ZM8.22597 7.68826C8.10344 7.68827 7.98215 7.69413 7.86252 7.70627L7.86286 7.70661C7.84709 7.70822 7.83135 7.70987 7.81564 7.7117C7.81138 7.74844 7.8079 7.78537 7.80477 7.82244C7.7965 7.92073 7.79221 8.02071 7.7922 8.12203C7.7922 10.0623 9.36523 11.6353 11.3055 11.6353C11.4442 11.6353 11.5808 11.6264 11.7151 11.6108C11.7306 11.4766 11.7392 11.3401 11.7392 11.2015C11.7392 9.26129 10.1662 7.68826 8.22597 7.68826ZM14.8187 4.25042C14.0272 4.33396 13.2592 4.49514 12.5222 4.72597C11.1564 5.15374 9.8961 5.8209 8.79085 6.67909C11.0409 6.95723 12.7827 8.8762 12.7827 11.2015C12.7827 11.2381 12.7819 11.2745 12.781 11.3109C13.984 10.7532 14.8187 9.53485 14.8187 8.12203V4.25042Z" fill="white"/><path fill-rule="evenodd" clip-rule="evenodd" d="M17.0789 3.17807C18.1113 3.25671 19.1106 3.45632 20.0619 3.76333C21.9936 4.38651 23.7261 5.45117 25.1414 6.83738C25.1453 6.84122 25.1488 6.84538 25.1526 6.84927L25.1536 6.84859L25.4328 7.13256L25.4355 7.13494L25.4383 7.13765C26.8271 8.58914 27.8818 10.3641 28.478 12.3387C28.7545 13.2545 28.932 14.2129 28.9987 15.2012L29.0364 15.7579H24.1536C22.0849 15.7579 20.3398 14.3797 19.783 12.4919C17.8956 11.9349 16.5174 10.1902 16.5174 8.12169V3.13561L17.0789 3.17807ZM25.5653 8.89207C25.1993 11.0419 23.3282 12.6788 21.0741 12.6788C21.0375 12.6788 21.0009 12.6783 20.9644 12.6774C21.5222 13.8803 22.7409 14.7144 24.1536 14.7144H27.906C27.8243 14.0018 27.6808 13.3086 27.479 12.6404C27.0654 11.2706 26.411 10.0049 25.5653 8.89207ZM24.1533 7.68792C22.2131 7.68797 20.64 9.26097 20.64 11.2012C20.64 11.34 20.6488 11.4768 20.6645 11.6112C20.6854 11.6136 20.7063 11.6163 20.7273 11.6183H20.728C20.8418 11.6295 20.9574 11.6353 21.0741 11.6353C23.0144 11.6353 24.5874 10.0623 24.5874 8.12203C24.5874 7.99258 24.5796 7.86506 24.566 7.73956L24.5358 7.70864C24.5034 7.70518 24.4709 7.70207 24.4383 7.69947L24.4372 7.69913C24.3442 7.69159 24.2494 7.68792 24.1533 7.68792ZM17.5609 8.12169C17.5609 9.53432 18.3952 10.7528 19.5979 11.3105C19.5971 11.2742 19.5966 11.2377 19.5966 11.2012C19.5966 8.93813 21.2466 7.06058 23.4091 6.70525C22.3218 5.8549 21.0834 5.18953 19.7413 4.75654C19.0409 4.53051 18.3119 4.3678 17.5609 4.27488V8.12169Z" fill="white"/></svg>
